<svg width="32" height="32" viewBox="0 0 32 32" fill="none" xmlns="http://www.w3.org/2000/svg">
<path d="M12.7226 8.32766C12.8451 8.15891 13.0251 8.04391 13.2288 8.00392C13.5038 8.03017 13.7551 8.16892 13.9251 8.38766C14.0151 8.49016 14.1426 8.55141 14.2788 8.55891C14.4138 8.56516 14.5476 8.51516 14.6463 8.42141C14.7451 8.32766 14.8013 8.19766 14.8013 8.06141C14.8026 7.92516 14.7476 7.79516 14.6501 7.70017C14.2838 7.24516 13.7251 6.9889 13.1401 7.0089C12.6376 7.0739 12.1851 7.34765 11.8963 7.76516C11.7413 7.99391 11.8001 8.30391 12.0288 8.46017C12.2563 8.61517 12.5676 8.55641 12.7226 8.32766Z" fill="black"/>
<path d="M18.1251 8.32766C18.2464 8.15891 18.4264 8.04391 18.6301 8.00391C18.9051 8.03141 19.1564 8.17016 19.3264 8.38766C19.4151 8.49266 19.5426 8.55641 19.6801 8.56391C19.8176 8.57141 19.9526 8.52141 20.0514 8.42641C20.1514 8.33266 20.2077 8.20016 20.2077 8.06266C20.2077 7.92516 20.1502 7.79391 20.0502 7.70017C19.6839 7.24516 19.1239 6.9889 18.5401 7.0089C18.0389 7.0739 17.5876 7.3489 17.3001 7.76391C17.1451 7.99266 17.2039 8.30391 17.4314 8.45892C17.6601 8.61392 17.9714 8.55517 18.1264 8.32767L18.1251 8.32766Z" fill="black"/>
<path d="M13.3875 11.3255C13.2112 11.538 13.24 11.853 13.4525 12.0305C14.2038 12.6355 15.1362 12.9742 16.1025 12.993C17.0137 12.9892 17.8912 12.6417 18.5575 12.0205C18.765 11.8367 18.785 11.5205 18.6012 11.313C18.4175 11.1067 18.1012 11.0867 17.895 11.2705C16.095 12.8705 14.1699 11.3255 14.0886 11.2592C13.8761 11.0855 13.5637 11.1155 13.3875 11.3255Z" fill="black"/>
<path d="M5.43486 19.9263C5.42611 20.6675 5.75611 21.3725 6.32987 21.8413C6.77486 22.2075 7.29112 22.4763 7.84612 22.63C7.85612 23.3538 7.95487 24.0738 8.13987 24.7725L7.05738 25.7C6.58112 26.1088 6.31363 26.7088 6.32487 27.3363C6.33737 27.9625 6.62736 28.5513 7.11863 28.9425L8.89987 30.35C9.63613 30.9337 10.6749 30.9425 11.4211 30.3712L11.9936 29.9325H11.9949C12.0749 29.8675 12.1511 29.7975 12.2211 29.7212C13.2936 30.5738 14.6299 31.025 16 31C17.37 31.0262 18.7063 30.575 19.7799 29.7225C19.8499 29.7987 19.9249 29.87 20.0061 29.9337L20.5799 30.3725C21.3261 30.9438 22.3636 30.9337 23.0999 30.35L24.8799 28.9413C25.3698 28.55 25.6611 27.9613 25.6724 27.3338C25.6849 26.7075 25.4161 26.1075 24.9411 25.6988L23.8586 24.7713H23.8574C24.0424 24.0713 24.1424 23.3525 24.1524 22.6288C24.6998 22.48 25.2099 22.2175 25.6499 21.8575C26.2361 21.39 26.5749 20.6775 26.5674 19.9263C26.6049 18.0525 24.9449 15.8037 21.641 13.2363L21.6397 13.2376C22.2622 12.5151 22.7385 11.6788 23.0422 10.7763C24.1497 10.7126 25.026 9.81384 25.0597 8.70507C25.0947 7.59634 24.276 6.64507 23.1735 6.51381C22.6097 4.39006 21.1335 2.62645 19.1421 1.69749C17.1521 0.767504 14.8522 0.767504 12.8608 1.69749C10.8708 2.62622 9.3946 4.39 8.82948 6.51381C7.72823 6.64506 6.90948 7.5963 6.94324 8.70507C6.97824 9.81381 7.85326 10.7126 8.96199 10.7763C9.26574 11.6801 9.74199 12.5163 10.3645 13.2401C7.05953 15.8051 5.39937 18.0538 5.43457 19.9265L5.43486 19.9263ZM11.3849 29.14L10.8124 29.5788V29.5775C10.4299 29.8725 9.89617 29.8675 9.51867 29.5675L7.73867 28.1588H7.73992C7.48242 27.9538 7.33118 27.6451 7.32491 27.3163C7.31866 26.9876 7.45866 26.6738 7.70741 26.4588L8.83992 25.4901C9.07117 25.2888 9.37992 25.2001 9.68241 25.2476C9.98866 25.2938 10.2599 25.4726 10.4237 25.7363L11.6437 27.6763V27.6751C11.9449 28.1576 11.8337 28.7901 11.3849 29.14ZM19.5088 27.1438H19.51C19.1975 27.6475 19.1125 28.26 19.275 28.83C18.3638 29.6075 17.1988 30.0238 16.0001 30C14.8014 30.0238 13.6364 29.6075 12.724 28.83C12.8877 28.26 12.8027 27.6475 12.4902 27.1438L11.2702 25.2038C10.809 24.45 9.91024 24.0838 9.05273 24.3C8.92773 23.76 8.85773 23.2101 8.84648 22.6563C9.66773 22.4151 10.3202 21.7888 10.5965 20.9776H21.4003C21.6753 21.7888 22.3278 22.4163 23.1504 22.6576C23.1404 23.2101 23.0729 23.7613 22.9504 24.3C22.6954 24.2363 22.4304 24.2225 22.1704 24.2588C21.5766 24.35 21.0516 24.6951 20.7329 25.2038L19.5088 27.1438ZM24.2912 26.46H24.2924C24.5412 26.6738 24.6812 26.9888 24.6749 27.3176C24.6687 27.645 24.5174 27.9538 24.2599 28.16L22.4799 29.5688V29.5675C22.1037 29.8675 21.5699 29.8725 21.1874 29.5788L20.6136 29.14C20.1662 28.7913 20.0549 28.16 20.3549 27.6775L21.5749 25.7375H21.5761C21.7399 25.475 22.0112 25.2963 22.3174 25.2488C22.6199 25.2013 22.9287 25.2901 23.1599 25.4913L24.2912 26.46ZM9.80606 10.1288C9.74606 9.9126 9.54981 9.76261 9.32481 9.76261C9.30231 9.76261 9.27856 9.76386 9.25481 9.76761C8.92732 9.81386 8.59356 9.71636 8.3423 9.50011C8.0898 9.28511 7.94355 8.97137 7.9398 8.63886C7.94105 8.01012 8.45107 7.50011 9.0798 7.50011C9.1073 7.49886 9.13605 7.49886 9.16355 7.50011C9.42105 7.53136 9.65981 7.36011 9.71357 7.10635C10.0198 5.66385 10.8111 4.37009 11.9561 3.44139C13.0998 2.51265 14.5286 2.00388 16.0025 2.00014C16.4087 2.00139 16.8124 2.04139 17.2112 2.12014V4.16264C17.2012 4.55137 16.8825 4.86014 16.4937 4.86014C16.105 4.86014 15.7862 4.55139 15.7762 4.16264C15.7787 3.84014 15.9912 3.55889 16.2999 3.46888C16.4274 3.43263 16.5362 3.34762 16.6012 3.23137C16.6662 3.11512 16.6812 2.97762 16.6449 2.85013C16.6074 2.72138 16.5212 2.61388 16.4049 2.55013C16.2887 2.48513 16.1512 2.47013 16.0237 2.50763C15.3975 2.68638 14.9249 3.20264 14.8049 3.84264C14.6849 4.48264 14.9374 5.13515 15.4562 5.52763C15.9762 5.92139 16.6725 5.98638 17.255 5.69638C17.8387 5.40763 18.2075 4.81263 18.2087 4.16262V2.39762C20.2862 3.16262 21.8238 4.94137 22.2823 7.10642C22.3361 7.36143 22.5748 7.53266 22.8323 7.50018C22.8598 7.49893 22.8886 7.49893 22.9161 7.50018C23.5448 7.50143 24.0561 8.01145 24.0561 8.64018C24.0511 8.9727 23.9036 9.28518 23.6523 9.50143C23.4011 9.71643 23.0686 9.81393 22.7398 9.76893C22.4923 9.73393 22.2573 9.88893 22.1898 10.1302C21.6873 11.9489 20.4098 13.454 18.696 14.2463C16.9835 15.0401 15.0096 15.0401 13.2973 14.2463C11.5848 13.4538 10.3073 11.9488 9.80357 10.1302L9.80606 10.1288ZM11.0748 13.9576C12.4298 15.1702 14.1835 15.8414 16.0022 15.8401C17.8209 15.8401 19.5746 15.1689 20.9286 13.9552C24.951 17.0601 25.5686 18.9913 25.5647 19.8752C25.586 20.3239 25.3985 20.7576 25.056 21.0502C24.6585 21.4077 24.1597 21.6339 23.6297 21.7001C22.366 21.7614 21.986 19.4601 21.9798 19.4376C21.9398 19.1639 21.6873 18.9739 21.4135 19.0139C21.1398 19.0527 20.9498 19.3064 20.9898 19.5801C20.9935 19.6076 21.0173 19.7601 21.0698 19.9801H10.9287C10.9787 19.7614 11.0037 19.6089 11.0087 19.5801H11.0074C11.0474 19.3064 10.8574 19.0527 10.5837 19.0139C10.3099 18.9739 10.0574 19.1639 10.0174 19.4376C10.0137 19.4601 9.6274 21.7651 8.36743 21.7001C7.83243 21.6314 7.33118 21.4014 6.92993 21.0401C6.59742 20.7464 6.41617 20.3176 6.43742 19.8752C6.43117 18.9914 7.04987 17.0613 11.0748 13.9576Z" fill="black"/>
<path d="M16.4938 21.7002H11.3501C11.0738 21.7002 10.8501 21.9239 10.8501 22.2002C10.8501 22.4764 11.0738 22.7002 11.3501 22.7002H16.4938C16.77 22.7002 16.9938 22.4764 16.9938 22.2002C16.9938 21.9239 16.77 21.7002 16.4938 21.7002Z" fill="black"/>
<path d="M19.12 21.7002H17.9275C17.6512 21.7002 17.4275 21.9239 17.4275 22.2002C17.4275 22.4764 17.6512 22.7002 17.9275 22.7002H19.12C19.3963 22.7002 19.62 22.4764 19.62 22.2002C19.62 21.9239 19.3963 21.7002 19.12 21.7002Z" fill="black"/>
</svg>
