<svg width="32" height="32" viewBox="0 0 32 32" fill="none" xmlns="http://www.w3.org/2000/svg">
<g clip-path="url(#clip0_2035_3189)">
<path d="M22.7501 32H22.9001C23.1076 31.9962 23.3101 31.9262 23.4751 31.8C23.6889 31.645 23.8326 31.4113 23.8751 31.15L24.0501 30H23.0501L22.9001 31L16.7001 30H10.375L22.7501 32Z" fill="black"/>
<path d="M7.57501 28.5251L2.99997 27.8001L7.09981 1.00008L13.3248 2.00008H19.6249L7.24989 8.31268e-05C6.99489 -0.0399169 6.73364 0.022583 6.5249 0.175085C6.31115 0.330086 6.16739 0.563821 6.1249 0.825069L1.99978 27.65C1.95603 27.9125 2.01853 28.18 2.17353 28.3963C2.32853 28.6113 2.56227 28.7575 2.82479 28.8L8.42479 29.7C8.00479 29.4288 7.70125 29.0088 7.57501 28.5251Z" fill="black"/>
<path d="M29 3H26.45C26.5887 3.31875 26.6812 3.65501 26.725 4H29V28H9.49982V4H19.2749C19.3186 3.65501 19.4111 3.31875 19.5499 3H9.49994C8.94743 3 8.49994 3.44749 8.49994 4V28C8.49994 28.265 8.60494 28.52 8.79244 28.7075C8.97994 28.895 9.23493 29 9.49993 29H29.0001C29.2651 29 29.5201 28.895 29.7076 28.7075C29.8951 28.52 30.0001 28.265 30.0001 28V4C30.0001 3.735 29.8951 3.48 29.7076 3.29251C29.5201 3.10501 29.265 3 29 3Z" fill="black"/>
<path d="M22.7501 4.24963C22.4738 4.24963 22.2501 4.47338 22.2501 4.74963V6.54963C22.3276 7.47463 23.0963 8.18963 24.0251 8.19962C24.4801 8.20587 24.9189 8.02962 25.2439 7.71088C25.5676 7.39088 25.7501 6.95463 25.7501 6.49962V4.47463C25.7501 2.95587 24.5188 1.72461 23.0001 1.72461C21.4813 1.72461 20.2501 2.95587 20.2501 4.47463V7.72455C20.2776 9.12704 21.4226 10.2495 22.8251 10.2495H23.8251C24.1013 10.2495 24.3251 10.0258 24.3251 9.74954C24.3251 9.47329 24.1013 9.24954 23.8251 9.24954H22.8251C21.9651 9.24954 21.2638 8.55955 21.2501 7.69952V4.4496C21.2501 3.48336 22.0338 2.69959 23.0001 2.69959C23.9663 2.69959 24.7501 3.48333 24.7501 4.4496V6.49959C24.7501 6.88583 24.4363 7.19958 24.0501 7.19958C23.6401 7.18958 23.3001 6.88084 23.2501 6.47459V4.7496C23.2501 4.6171 23.1976 4.4896 23.1038 4.39584C23.0101 4.30208 22.8826 4.24963 22.7501 4.24963Z" fill="black"/>
<path d="M25.5001 14.25H13.0003C12.7241 14.25 12.5003 14.4738 12.5003 14.75C12.5003 15.0262 12.7241 15.25 13.0003 15.25H25.5001C25.7764 15.25 26.0001 15.0262 26.0001 14.75C26.0001 14.4738 25.7764 14.25 25.5001 14.25Z" fill="black"/>
<path d="M25.5001 17.75H13.0003C12.7241 17.75 12.5003 17.9738 12.5003 18.25C12.5003 18.5262 12.7241 18.75 13.0003 18.75H25.5001C25.7764 18.75 26.0001 18.5262 26.0001 18.25C26.0001 17.9738 25.7764 17.75 25.5001 17.75Z" fill="black"/>
<path d="M25.5001 21.25H13.0003C12.7241 21.25 12.5003 21.4738 12.5003 21.75C12.5003 22.0262 12.7241 22.25 13.0003 22.25H25.5001C25.7764 22.25 26.0001 22.0262 26.0001 21.75C26.0001 21.4738 25.7764 21.25 25.5001 21.25Z" fill="black"/>
</g>
<defs>
<clipPath id="clip0_2035_3189">
<rect width="32" height="32" fill="white"/>
</clipPath>
</defs>
</svg>
