<svg width="32" height="32" viewBox="0 0 32 32" fill="none" xmlns="http://www.w3.org/2000/svg">
<path d="M31.1244 15.8084C31.4223 15.8084 31.6643 15.5664 31.6643 15.2671V8.37483C31.6643 7.70908 31.1258 7.16783 30.4601 7.16504H7.21098C6.91728 7.17063 6.6795 7.41119 6.6795 7.70629C6.6809 8 6.91727 8.24056 7.21098 8.24615H21.509C21.5076 8.7063 21.4139 9.32725 22.0489 9.35944H22.0503C22.3482 9.35944 22.5901 9.11748 22.5901 8.81959V8.24615H30.4599C30.5298 8.24755 30.5844 8.30629 30.5844 8.37482V14.7748C29.9676 14.8811 29.4012 15.179 28.962 15.6238C27.1984 17.2518 28.2194 20.4713 30.5844 20.8057V27.0267C30.583 27.1973 30.4459 27.3344 30.2767 27.3344H22.5899V26.7609C22.5843 26.4672 22.3437 26.2323 22.05 26.2323C21.7549 26.2323 21.5158 26.4672 21.5088 26.7609V27.3344H18.5871C18.292 27.34 18.0556 27.5805 18.0556 27.8742C18.0556 28.1693 18.292 28.4099 18.5871 28.4155H30.2764C31.0415 28.4141 31.6624 27.7931 31.6638 27.0267V20.3134C31.6638 20.0141 31.4219 19.7721 31.124 19.7721C30.0373 19.761 29.1631 18.877 29.1631 17.7903C29.1631 16.7036 30.0373 15.8197 31.124 15.8085L31.1244 15.8084Z" fill="black"/>
<path d="M16.4264 27.3343H1.61532C1.50483 27.3343 1.41532 27.2448 1.41532 27.1343V20.8056C2.03212 20.6993 2.59854 20.4014 3.03768 19.9566C4.80133 18.3286 3.78033 15.1091 1.41532 14.7747V8.24615H5.05733C5.35103 8.24055 5.58741 7.99999 5.58741 7.70629C5.58741 7.41119 5.35104 7.17062 5.05733 7.16504H1.36233C0.79591 7.16644 0.335754 7.62519 0.335754 8.19162V15.2672C0.335754 15.5665 0.577712 15.8085 0.87561 15.8085C1.97072 15.8085 2.85884 16.6952 2.85884 17.7903C2.85884 18.8854 1.97072 19.7722 0.87561 19.7722C0.577708 19.7722 0.335754 20.0141 0.335754 20.3134V27.1345C0.337153 27.8422 0.909195 28.4142 1.61547 28.4156H16.4266C16.7203 28.4086 16.9567 28.1694 16.9567 27.8743C16.9567 27.5806 16.7202 27.3399 16.4264 27.3343Z" fill="black"/>
<path d="M14.1747 9.64757C13.0391 9.67694 11.9929 10.2686 11.3831 11.2266C10.9286 10.9595 10.4125 10.8168 9.88521 10.814C8.01809 10.814 6.5006 12.5791 6.5006 14.7482V14.7496C6.46004 16.2 7.20408 17.5594 8.44885 18.3062C8.22088 18.6041 8.0978 18.9692 8.0964 19.344V19.9775C8.0964 20.2755 8.33836 20.5174 8.63765 20.5174H9.06422C8.68241 21.3845 8.83206 22.3929 9.44604 23.1118C9.96212 23.6671 9.97612 24.5202 9.48101 25.0922C9.31457 25.3398 9.38171 25.6754 9.62926 25.8419C10.6069 26.358 11.0307 24.2894 10.902 23.7454C10.7929 22.8153 10.1328 22.5006 9.94254 21.7454L9.94394 21.744C9.90338 21.3062 10.0251 20.8699 10.288 20.5174C10.7691 20.4824 11.6433 20.7132 11.674 19.9775C11.7621 19.3957 11.6404 18.8013 11.3328 18.3006C11.7383 18.0726 12.095 17.7664 12.3803 17.3985C12.4796 17.4657 12.5817 17.5272 12.6866 17.5831C12.2754 18.0363 12.2894 18.7901 12.3076 19.3775H12.3062C12.3062 19.5202 12.3635 19.6587 12.4642 19.7594C12.5663 19.8615 12.7034 19.9174 12.846 19.9174H13.7663C14.0572 20.3034 14.1943 20.7845 14.1495 21.2656C13.9509 22.074 13.2376 22.4209 13.1271 23.3957V23.3971C13.0474 24.1258 13.2446 24.8572 13.6796 25.4475C13.846 25.6936 14.1817 25.7594 14.4278 25.5943C14.6754 25.4293 14.7425 25.095 14.5789 24.8475C14.295 24.4768 14.1593 24.0139 14.1971 23.5482C14.3551 22.7356 15.074 22.3929 15.2124 21.4587C15.2964 20.9356 15.2208 20.3986 14.9957 19.9174H15.5062C15.8055 19.9174 16.0474 19.6755 16.0474 19.3776C16.1425 18.7524 16.0027 18.1133 15.653 17.586C19.0166 15.8349 18.1062 9.71882 14.1747 9.64757ZM7.58031 14.7497C7.68381 10.9748 12.0866 10.9748 12.1901 14.7497C12.0866 18.5245 7.68379 18.5245 7.58031 14.7497ZM9.96211 18.6838C10.1509 18.688 10.3285 18.7719 10.4488 18.9174C10.5705 19.0615 10.6223 19.2503 10.5943 19.4363H9.17752C9.15514 19.2251 9.23206 19.0153 9.38452 18.8685C9.53836 18.7202 9.7523 18.6531 9.96211 18.6838ZM13.3859 18.6726C13.4292 17.6153 15.1062 17.7873 14.9663 18.8377H13.3859V18.6726ZM14.1747 16.8824C13.7244 16.8782 13.288 16.73 12.9285 16.4601C13.1551 15.9188 13.2712 15.337 13.2698 14.7496C13.2824 13.7048 12.909 12.6936 12.2208 11.909C13.7383 9.53838 16.72 11.0656 16.6641 13.8069C16.6655 15.502 15.5481 16.8824 14.1747 16.8824Z" fill="black"/>
<path d="M21.5092 20.5004C21.5162 20.7941 21.7554 21.0304 22.0505 21.0304C22.3442 21.0304 22.5847 20.7941 22.5903 20.5004V18.5633C22.5833 18.2682 22.3442 18.0332 22.0505 18.0332C21.7554 18.0332 21.5162 18.2696 21.5092 18.5633V20.5004Z" fill="black"/>
<path d="M21.5092 24.3763C21.5162 24.67 21.7554 24.905 22.0505 24.905C22.3442 24.905 22.5847 24.6701 22.5903 24.3763V22.4379C22.5833 22.1442 22.3442 21.9092 22.0505 21.9092C21.7554 21.9092 21.5162 22.1441 21.5092 22.4393V24.3763Z" fill="black"/>
<path d="M22.0502 13.2908C22.3481 13.2908 22.59 13.0488 22.59 12.7495V10.8125C22.5872 10.516 22.3467 10.2754 22.0502 10.2754C21.7523 10.2754 21.5117 10.516 21.5089 10.8125V12.7495C21.5089 13.0488 21.7509 13.2908 22.0502 13.2908Z" fill="black"/>
<path d="M21.5092 16.6254C21.5162 16.9191 21.7554 17.1554 22.0505 17.1554C22.3442 17.1554 22.5847 16.9191 22.5903 16.6254V14.6883C22.5833 14.3946 22.3442 14.1582 22.0505 14.1582C21.7554 14.1582 21.5162 14.3946 21.5092 14.6883V16.6254Z" fill="black"/>
<path d="M23.5608 25.1256C23.5608 25.4236 23.8014 25.6655 24.1006 25.6655H28.9972H28.9958C29.2951 25.6655 29.5371 25.4235 29.5371 25.1256V22.2361C29.5371 21.9382 29.2951 21.6963 28.9958 21.6963H24.1007C23.8014 21.6963 23.5608 21.9382 23.5608 22.2361L23.5608 25.1256ZM24.6405 22.776H28.4558V24.5858H24.6405V22.776Z" fill="black"/>
<path d="M24.1007 11.3522H28.9973H28.9959C29.291 11.3466 29.5259 11.106 29.5259 10.8123C29.5259 10.5186 29.291 10.278 28.9959 10.2725H24.1007C23.807 10.2781 23.572 10.5186 23.572 10.8123C23.572 11.106 23.807 11.3466 24.1007 11.3522Z" fill="black"/>
<path d="M24.1007 13.3678H28.9973H28.9959C29.291 13.3622 29.526 13.1216 29.526 12.8279C29.526 12.5342 29.291 12.2937 28.9959 12.2881H24.1008C23.8071 12.2937 23.5707 12.5342 23.5707 12.8279C23.5707 13.1216 23.807 13.3622 24.1007 13.3678Z" fill="black"/>
</svg>
