<svg width="32" height="32" viewBox="0 0 32 32" fill="none" xmlns="http://www.w3.org/2000/svg">
<path d="M19.1433 24.4354L28.2866 19.1567L27.2319 17.3299C27.1773 17.2427 27.1122 17.171 27.0366 17.115L27.0184 17.1007C26.9403 17.046 26.8452 17.0057 26.7372 16.9809C26.6226 16.9549 26.5132 16.951 26.4116 16.9705C26.3101 16.99 26.2085 17.033 26.1122 17.0981C23.5171 18.8638 21.5172 21.1385 19.4442 23.4978L18.6173 24.4353L19.1433 24.4354ZM18.474 5.52139C18.5574 5.67504 18.6381 5.83649 18.7136 6.00576C18.9949 6.63466 19.224 7.37816 19.3855 8.19846H21.3152C21.0326 7.66069 20.6707 7.17112 20.2449 6.74662C19.7371 6.23882 19.1368 5.82089 18.474 5.52139ZM19.5769 9.53306C19.6225 10.0057 19.6459 10.4927 19.6459 10.9927C19.6459 11.4927 19.6225 11.981 19.5769 12.4523H21.823C21.9402 11.9849 22.0014 11.4966 22.0014 10.9927C22.0014 10.4888 21.9402 10.0005 21.823 9.53306H19.5769ZM19.3842 13.7871C19.2241 14.6074 18.9936 15.3509 18.7123 15.9798C18.6368 16.149 18.5574 16.3105 18.4741 16.4628C19.1368 16.162 19.7358 15.7454 20.2436 15.2376C20.6694 14.8118 21.0301 14.3235 21.3139 13.7857H19.3842L19.3842 13.7871ZM13.5249 16.4641C13.4415 16.3105 13.3621 16.149 13.2853 15.9798C13.004 15.3509 12.7749 14.6074 12.6134 13.7871H10.6837C10.9663 14.3248 11.3283 14.8144 11.7527 15.2389C12.2605 15.7467 12.8608 16.1634 13.5236 16.4642L13.5249 16.4641ZM12.422 12.4538C12.3764 11.9811 12.353 11.4942 12.353 10.9942C12.353 10.4942 12.3764 10.0059 12.422 9.53452H10.1759C10.0587 10.002 9.99752 10.4903 9.99752 10.9942C9.99752 11.4981 10.06 11.9864 10.1759 12.4538H12.422ZM12.6147 8.19979C12.7749 7.37949 13.0053 6.63599 13.2866 6.00709C13.3621 5.83782 13.4415 5.67636 13.5249 5.52402C12.8621 5.8248 12.2631 6.24146 11.7553 6.74929C11.3296 7.17506 10.9689 7.66336 10.6863 8.19982H12.616L12.6147 8.19979ZM17.5 6.54876C17.0703 5.58652 16.5365 4.99146 16 4.99146C15.4636 4.99146 14.9297 5.58652 14.5 6.54876C14.2865 7.02532 14.1081 7.58262 13.974 8.19979H18.0273C17.8932 7.58259 17.7135 7.02532 17.5013 6.54876H17.5ZM13.7604 9.53442C13.7122 10.0019 13.6862 10.4902 13.6862 10.9941C13.6862 11.498 13.7122 11.9863 13.7604 12.4537H18.237C18.2852 11.9863 18.3113 11.498 18.3113 10.9941C18.3113 10.4902 18.2852 10.0019 18.237 9.53442H13.7604ZM13.9726 13.7884C14.1067 14.4056 14.2864 14.9629 14.4987 15.4395C14.9284 16.4017 15.4622 16.9968 15.9987 16.9968C16.5351 16.9968 17.069 16.4017 17.4987 15.4395C17.7122 14.9629 17.8906 14.4056 18.0247 13.7884H13.9714H13.9726ZM9.05462 13.3614C9.04681 13.3418 9.0403 13.321 9.03379 13.3002C8.7942 12.5749 8.66399 11.8002 8.66399 10.9955C8.66399 10.183 8.7968 9.40039 9.04029 8.66993L9.0455 8.6543C9.4101 7.56967 10.0221 6.5996 10.8124 5.80794C12.1406 4.4798 13.9752 3.6582 15.9998 3.6582C18.0219 3.6582 19.8551 4.4798 21.1848 5.80794L21.1887 5.81184C21.9712 6.59441 22.5767 7.55274 22.9439 8.62174C22.953 8.64518 22.9608 8.66992 22.9673 8.69466C23.2069 9.41863 23.3371 10.1921 23.3371 10.9954C23.3371 11.8027 23.2069 12.5788 22.966 13.3053L22.9517 13.3483L22.9504 13.3509C22.5845 14.429 21.9751 15.3952 21.1886 16.1829C19.8618 17.5098 18.0272 18.3314 16.0013 18.3314C13.9779 18.3314 12.1433 17.5098 10.8163 16.1829C10.0298 15.3965 9.42178 14.4342 9.05592 13.3613L9.05462 13.3614ZM15.1626 24.438H16.8345C17.3697 23.8482 17.9087 23.2336 18.4439 22.6255C20.5728 20.2024 22.6262 17.8652 25.3659 16.0019C25.6159 15.8313 25.8854 15.7193 26.1653 15.6659C26.4466 15.6138 26.7383 15.6204 27.0325 15.6868C27.3151 15.7519 27.5716 15.8651 27.7969 16.0266L27.8229 16.0448C28.039 16.2037 28.2239 16.4081 28.3724 16.6529L29.4375 18.494L30.1836 18.063C30.5013 17.8794 30.9088 17.9875 31.0924 18.3052L31.5612 19.1203C31.5872 19.1568 31.608 19.1945 31.6263 19.2336C31.9909 19.9003 32.0612 20.6542 31.8776 21.3378C31.6953 22.0214 31.2578 22.6385 30.608 23.0344L19.9754 29.1764C19.8217 29.5331 19.6017 29.8534 19.3308 30.1243C18.7814 30.6738 18.0235 31.0149 17.1889 31.0149H14.8113C13.9767 31.0149 13.2189 30.6738 12.6694 30.1243C12.3985 29.8535 12.1785 29.5332 12.0248 29.1764L1.39217 23.0344C0.741136 22.6385 0.304936 22.0213 0.122636 21.3378C-0.0609569 20.6542 0.00935642 19.9003 0.37394 19.2336C0.390867 19.1945 0.413003 19.1555 0.439043 19.1203L0.907776 18.3052C1.09137 17.9875 1.49891 17.8794 1.81664 18.063L2.56274 18.494L3.62784 16.6529C3.77628 16.4081 3.96118 16.2037 4.17731 16.0448L4.20335 16.0266C4.42861 15.8664 4.68382 15.7532 4.96638 15.6881C5.26065 15.6217 5.55232 15.6138 5.83359 15.6672C6.11485 15.7206 6.38305 15.8326 6.63305 16.0032C9.37132 17.8651 11.4234 20.2012 13.5524 22.6228C14.0876 23.2322 14.6279 23.8468 15.1644 24.4392L15.1626 24.438ZM20.22 25.3521V27.4979L29.8813 21.9199C30.2446 21.7116 30.4894 21.3718 30.5896 20.9942C30.6899 20.6179 30.6495 20.2038 30.4451 19.8431L30.2745 19.5476L29.5428 19.9694L29.5284 19.9785L20.22 25.3521ZM11.7773 27.4979V25.3521L2.46995 19.9784L2.45563 19.9693L1.72387 19.5474L1.55329 19.843C1.34756 20.2037 1.3072 20.6177 1.40876 20.994C1.51033 21.3729 1.75383 21.7115 2.1145 21.9198L11.7785 27.4992L11.7773 27.4979ZM17.1173 25.7714H13.1106V27.981C13.1106 28.4484 13.302 28.8729 13.6093 29.1802C13.9166 29.4875 14.3424 29.6789 14.8086 29.6789H17.1862C17.6523 29.6789 18.0781 29.4875 18.3854 29.1802C18.6927 28.8729 18.8841 28.4472 18.8841 27.981V25.7714H17.1159H17.1173ZM12.8543 24.438H13.379L12.5496 23.4966C10.478 21.1386 8.48059 18.865 5.88559 17.1006C5.78924 17.0355 5.68898 16.9926 5.58611 16.973C5.48455 16.9535 5.37517 16.9574 5.26059 16.9834C5.15251 17.0082 5.05746 17.0485 4.97934 17.1032L4.96111 17.1163C4.88559 17.1722 4.81918 17.2439 4.7658 17.3311L3.7124 19.1579L12.8557 24.4366L12.8543 24.438Z" fill="black"/>
</svg>
