<svg width="32" height="32" viewBox="0 0 32 32" fill="none" xmlns="http://www.w3.org/2000/svg">
<path d="M16 15.9746C17.3672 15.9746 18.6776 15.4312 19.6437 14.465C20.6098 13.4988 21.1533 12.1884 21.1533 10.8213C21.1533 9.4542 20.6099 8.14375 19.6437 7.17763C18.6775 6.21151 17.3671 5.66797 16 5.66797C14.6329 5.66797 13.3225 6.21144 12.3563 7.17763C11.3902 8.14381 10.8467 9.4542 10.8467 10.8213C10.8491 12.1873 11.3926 13.4964 12.3587 14.4625C13.3249 15.4286 14.6342 15.9722 16 15.9746ZM16 6.9565C17.5628 6.9565 18.9722 7.89854 19.5701 9.34175C20.1691 10.7862 19.8382 12.4493 18.7331 13.5543C17.6281 14.6594 15.965 14.9903 14.5206 14.3913C13.0773 13.7934 12.1353 12.384 12.1353 10.8212C12.1353 8.68713 13.866 6.9565 16 6.9565Z" fill="black"/>
<path d="M6.33815 15.9749C7.64128 15.9749 8.8152 15.1899 9.314 13.9858C9.81159 12.7829 9.53622 11.3976 8.61593 10.476C7.69443 9.55566 6.30918 9.28031 5.10614 9.7779C3.90204 10.2767 3.117 11.4506 3.117 12.7537C3.117 13.6076 3.45639 14.4277 4.06025 15.0315C4.6641 15.6354 5.48429 15.9749 6.33815 15.9749ZM6.33815 10.8215C7.11954 10.8215 7.82487 11.2925 8.12316 12.0147C8.42268 12.737 8.25722 13.5679 7.70407 14.1198C7.15213 14.673 6.32121 14.8384 5.599 14.5389C4.87679 14.2406 4.40575 13.5353 4.40575 12.7539C4.40938 11.6875 5.27173 10.8251 6.33815 10.8215Z" fill="black"/>
<path d="M25.6618 15.9749C26.9649 15.9749 28.1389 15.1899 28.6377 13.9858C29.1353 12.7829 28.8599 11.3976 27.9396 10.476C27.0181 9.55566 25.6329 9.28031 24.4298 9.7779C23.2257 10.2767 22.4407 11.4506 22.4407 12.7537C22.4407 13.6076 22.7801 14.4277 23.3839 15.0315C23.9878 15.6354 24.808 15.9749 25.6618 15.9749ZM25.6618 10.8215C26.4432 10.8215 27.1485 11.2925 27.4468 12.0147C27.7464 12.737 27.5809 13.5679 27.0277 14.1198C26.4758 14.673 25.6449 14.8384 24.9227 14.5389C24.2005 14.2406 23.7294 13.5353 23.7294 12.7539C23.733 11.6875 24.5954 10.8251 25.6618 10.8215Z" fill="black"/>
<path d="M25.6618 16.6182C24.1377 16.6773 22.7633 17.5529 22.0676 18.9117C20.3913 17.4334 18.2344 16.6182 16 16.6182C13.7656 16.6182 11.6087 17.4334 9.93236 18.9117C9.23671 17.553 7.86231 16.6773 6.33816 16.6182C3.85143 16.6182 1.82971 19.2208 1.82971 22.4153H3.11716C3.11716 19.9285 4.56041 17.9068 6.33819 17.9068C7.52055 17.9962 8.54591 18.7547 8.9795 19.8585C7.26211 21.8102 6.32248 24.3246 6.33819 26.9239H7.62684C7.60994 24.4625 8.56647 22.0954 10.2863 20.3346C10.3479 20.2682 10.4155 20.2054 10.4868 20.1487C11.9614 18.7115 13.9397 17.9071 16 17.9071C18.0604 17.9071 20.0385 18.7115 21.5133 20.1487C21.5846 20.2054 21.6522 20.2682 21.7138 20.3346C23.4336 22.0955 24.3901 24.4628 24.3732 26.9239H25.6619C25.6776 24.3248 24.738 21.8104 23.0206 19.8585C23.4541 18.7547 24.4795 17.9962 25.6619 17.9068C27.4397 17.9068 28.8829 19.9298 28.8829 22.4153H30.1716C30.1704 19.2208 28.1486 16.6182 25.6618 16.6182Z" fill="black"/>
</svg>
