<svg width="32" height="32" viewBox="0 0 32 32" fill="none" xmlns="http://www.w3.org/2000/svg">
<path d="M22.8357 13.3737H2.99211C2.81343 13.3737 2.66809 13.5179 2.66809 13.6951V23.6564C2.66809 23.8336 2.81343 23.9778 2.99211 23.9778H12.5898V28.6364C12.5898 28.8136 12.7351 28.9578 12.9138 28.9578H22.8355C23.0141 28.9578 23.1595 28.8136 23.1595 28.6364V13.6952C23.1595 13.518 23.0144 13.3737 22.8357 13.3737ZM22.5117 18.3537H18.1995V14.0164H22.5117V18.3537ZM22.5117 23.3336H18.1995V18.9963H22.5117V23.3336ZM13.2393 18.9963H17.5516V23.3336H13.2393V18.9963ZM13.2393 14.0164H17.5516V18.3537H13.2393V14.0164ZM12.5913 18.3537H8.27904V14.0164H12.5913V18.3537ZM7.63116 14.0164V18.3537H3.31891V14.0164H7.63116ZM3.31891 18.9963H7.63116V23.3336H3.31891V18.9963ZM8.27904 23.3336V18.9963H12.5913V23.3336H8.27904ZM13.2392 23.9764H17.5514V28.3137H13.2392V23.9764ZM18.1993 28.3137V23.9764H22.5116V28.3137H18.1993ZM21.0234 6.76416H20.2687C20.0901 6.76416 19.9447 6.61999 19.9447 6.44275C19.9447 6.2655 20.0901 6.12133 20.2687 6.12133H21.0234C21.2021 6.12133 21.3474 6.2655 21.3474 6.44275C21.3474 6.61999 21.2021 6.76416 21.0234 6.76416ZM31.9998 6.44275C31.9998 2.89004 29.0864 0 25.505 0C21.9236 0 19.0102 2.89011 19.0102 6.44275C19.0102 7.12525 19.1168 7.79191 19.3262 8.43208H18.2034V7.25619C18.2034 6.3991 17.5007 5.70204 16.6367 5.70204C15.7727 5.70204 15.07 6.3991 15.07 7.25619V8.43208H10.7577V7.25619C10.7577 6.3991 10.055 5.70204 9.19102 5.70204C8.32699 5.70204 7.62429 6.3991 7.62429 7.25619V8.43208H6.59093V7.25619C6.59093 6.3991 5.88823 5.70204 5.02421 5.70204C4.16019 5.70204 3.45749 6.3991 3.45749 7.25619V8.43208H1.75074C0.785375 8.43208 0 9.21116 0 10.1688V30.2633C0 31.2209 0.785375 32 1.75074 32H24.0797C25.0451 32 25.8305 31.2209 25.8305 30.2633V12.8777C29.2614 12.7097 31.9998 9.88842 31.9998 6.44275ZM15.7192 7.25619C15.7192 6.75356 16.1312 6.34485 16.6366 6.34485C17.1433 6.34485 17.5553 6.75356 17.5553 7.25619V10.2508C17.5553 10.4942 17.4593 10.723 17.2859 10.8949C17.1126 11.0669 16.8819 11.1621 16.6366 11.1621C16.1299 11.1621 15.7192 10.7534 15.7192 10.2508L15.7192 7.25619ZM8.27372 7.25619C8.27372 6.75356 8.68572 6.34485 9.19242 6.34485C9.69912 6.34485 10.1098 6.75356 10.1098 7.25619V10.2508C10.1098 10.7534 9.69779 11.1621 9.19242 11.1621C8.94708 11.1621 8.71641 11.0669 8.54308 10.895C8.39107 10.7442 8.29907 10.5511 8.27906 10.3407C8.2764 10.3103 8.27506 10.2812 8.27506 10.2508V7.2562L8.27372 7.25619ZM4.10687 7.25619C4.10687 6.75356 4.51888 6.34485 5.02425 6.34485C5.53095 6.34485 5.94295 6.75356 5.94295 7.25619V10.2508C5.94295 10.7534 5.53095 11.1621 5.02425 11.1621C4.7789 11.1621 4.54824 11.0669 4.3749 10.895C4.2229 10.7442 4.13089 10.5511 4.11089 10.3407C4.10822 10.3103 4.10689 10.2812 4.10689 10.2508L4.10687 7.25619ZM0.646624 30.2645V24.3042C1.19333 25.9722 2.04001 27.4655 3.15741 28.7116C4.45348 30.156 6.0002 30.9152 7.29763 31.3583H1.74935C1.14134 31.3583 0.646624 30.8676 0.646624 30.2645ZM8.71508 31.1031C7.35634 30.7592 5.26678 30.0965 3.64162 28.2831C2.81357 27.3585 1.83486 25.9392 1.20818 23.938C1.9362 25.061 3.03627 26.1998 4.67764 26.8387C6.1537 27.4127 7.54309 27.4193 8.6151 27.258C8.37909 27.6813 8.21241 28.1349 8.12308 28.5992C7.90441 29.7341 8.29509 30.5555 8.71378 31.1017L8.71508 31.1031ZM25.1797 30.2645C25.1797 30.8676 24.685 31.3583 24.077 31.3583H9.8417C9.81103 31.3292 9.77903 31.2975 9.7417 31.2618C9.30836 30.8504 8.50165 30.0832 8.76298 28.7209C8.88166 28.1032 9.16301 27.504 9.57502 26.9908C9.66169 26.8823 9.66969 26.7315 9.59368 26.6164C9.51901 26.5 9.37768 26.4445 9.24169 26.4789C8.21098 26.7368 6.62422 26.9048 4.91612 26.2408C2.04933 25.1258 0.978659 22.3072 0.646527 21.122V10.17C0.646527 9.56686 1.14121 9.07611 1.74925 9.07611H3.456V10.252C3.456 10.6673 3.61867 11.0575 3.9147 11.3512C4.20938 11.6448 4.60405 11.8062 5.02275 11.8062C5.88677 11.8062 6.58947 11.1091 6.58947 10.252V9.07615H7.62284V10.252C7.62284 10.6674 7.78551 11.0576 8.08154 11.3512C8.37756 11.6448 8.7709 11.8062 9.1896 11.8062C10.0536 11.8062 10.7563 11.1092 10.7563 10.2521V9.07618H15.0686V10.2521C15.0686 11.1092 15.7713 11.8062 16.6353 11.8062C16.7406 11.8062 16.8433 11.7956 16.9433 11.7758C17.2447 11.7163 17.522 11.5708 17.7434 11.3499C17.9834 11.1105 18.1367 10.8089 18.1847 10.4809C18.1954 10.4055 18.2021 10.3288 18.2021 10.2507V9.07485H19.5741C19.5768 9.07882 19.5781 9.08411 19.5808 9.08807C19.5928 9.11585 19.6061 9.14231 19.6194 9.16876C19.6408 9.21373 19.6608 9.25738 19.6834 9.30103C19.6981 9.33013 19.7128 9.35791 19.7275 9.38701C19.7488 9.42801 19.7701 9.46901 19.7928 9.51002C19.8088 9.53912 19.8248 9.56822 19.8408 9.59731C19.8635 9.637 19.8848 9.67535 19.9088 9.71504C19.9261 9.74414 19.9435 9.77324 19.9608 9.80101C19.9835 9.83937 20.0075 9.87641 20.0315 9.91344C20.0501 9.94122 20.0688 9.97032 20.0875 9.99809C20.1115 10.0351 20.1368 10.0708 20.1621 10.1079C20.1808 10.1357 20.2008 10.1634 20.2208 10.1899C20.2461 10.2256 20.2728 10.2613 20.2981 10.2957C20.3181 10.3222 20.3381 10.3486 20.3581 10.3751C20.3848 10.4095 20.4128 10.4438 20.4408 10.4782C20.4621 10.5034 20.4821 10.5298 20.5035 10.5549C20.5315 10.5893 20.5608 10.6237 20.5902 10.6568C20.6115 10.6806 20.6315 10.7057 20.6528 10.7295C20.6835 10.7639 20.7155 10.797 20.7462 10.8314C20.7675 10.8539 20.7875 10.8764 20.8088 10.8988C20.8422 10.9332 20.8768 10.9676 20.9115 11.002C20.9315 11.0219 20.9502 11.0417 20.9702 11.0615C21.0102 11.0999 21.0502 11.1369 21.0915 11.1753C21.1075 11.1898 21.1222 11.2044 21.1382 11.2176C21.2515 11.3195 21.3689 11.4187 21.4888 11.5126C21.5075 11.5271 21.5262 11.5404 21.5448 11.5549C21.5862 11.5867 21.6289 11.6184 21.6715 11.6501C21.6955 11.6673 21.7195 11.6832 21.7422 11.7004C21.7809 11.7269 21.8195 11.7546 21.8582 11.7811C21.8849 11.7983 21.9102 11.8155 21.9369 11.8327C21.9742 11.8565 22.0115 11.8816 22.0502 11.9054C22.0782 11.9226 22.1062 11.9398 22.1342 11.9557C22.1715 11.9782 22.2089 12.0007 22.2475 12.0218C22.2769 12.0377 22.3049 12.0549 22.3342 12.0708C22.3716 12.0919 22.4102 12.1118 22.4476 12.1329C22.4769 12.1488 22.5076 12.1647 22.5369 12.1792C22.5756 12.1991 22.6129 12.2176 22.6516 12.2361C22.6822 12.2506 22.7129 12.2652 22.7436 12.2797C22.7822 12.2983 22.8209 12.3155 22.8609 12.3327C22.8916 12.3459 22.9236 12.3604 22.9542 12.3737C22.9942 12.3909 23.0342 12.4067 23.0742 12.4226C23.1049 12.4345 23.1369 12.4477 23.1676 12.4596C23.2089 12.4755 23.2503 12.4901 23.2916 12.5046C23.3223 12.5152 23.3543 12.5271 23.3849 12.5377C23.4276 12.5522 23.4703 12.5654 23.5143 12.58C23.5449 12.5893 23.5743 12.5998 23.6049 12.6091C23.6516 12.6236 23.6983 12.6355 23.7449 12.6488C23.773 12.6567 23.8009 12.6646 23.8289 12.6726C23.8849 12.6871 23.941 12.7004 23.9983 12.7136C24.017 12.7176 24.037 12.7228 24.0556 12.7268C24.1316 12.744 24.2076 12.7599 24.2836 12.7744C24.3036 12.7784 24.3236 12.781 24.3423 12.785C24.3996 12.7956 24.457 12.8048 24.5143 12.8141C24.5437 12.8181 24.5717 12.822 24.601 12.826C24.6503 12.8326 24.6983 12.8392 24.7477 12.8445C24.7797 12.8485 24.8117 12.8511 24.8437 12.8538C24.8903 12.8591 24.937 12.863 24.9837 12.867C25.017 12.8697 25.0503 12.871 25.085 12.8736C25.117 12.8763 25.149 12.8789 25.181 12.8802V30.2659L25.1797 30.2645ZM25.5037 12.2426C25.205 12.2426 24.9103 12.2201 24.6223 12.1778C22.6036 11.8762 20.8767 10.5522 20.0889 8.63284C19.8022 7.93842 19.6582 7.20167 19.6582 6.44379C19.6582 3.24551 22.281 0.643729 25.5038 0.643729C28.7266 0.643729 31.3494 3.24548 31.3494 6.44379C31.3494 9.64207 28.7265 12.2426 25.5037 12.2426ZM25.8277 1.24822V1.99686C25.8277 2.1741 25.6824 2.31827 25.5037 2.31827C25.325 2.31827 25.1797 2.1741 25.1797 1.99686V1.24822C25.1797 1.07098 25.325 0.926805 25.5037 0.926805C25.6824 0.926805 25.8277 1.07098 25.8277 1.24822ZM25.8277 10.8895V11.6381C25.8277 11.8154 25.6824 11.9595 25.5037 11.9595C25.325 11.9595 25.1797 11.8154 25.1797 11.6381V10.8895C25.1797 10.7122 25.325 10.5681 25.5037 10.5681C25.6824 10.5681 25.8277 10.7122 25.8277 10.8895ZM31.064 6.44386C31.064 6.62111 30.9187 6.76528 30.74 6.76528H29.9853C29.8066 6.76528 29.6613 6.62111 29.6613 6.44386C29.6613 6.26662 29.8066 6.12245 29.9853 6.12245H30.74C30.9187 6.12245 31.064 6.26662 31.064 6.44386ZM21.9036 4.38179C21.8436 4.48496 21.7342 4.54316 21.6222 4.54316C21.5676 4.54316 21.5116 4.52861 21.4609 4.49951L20.8075 4.12518C20.6528 4.03656 20.5995 3.83947 20.6888 3.68603C20.7782 3.53259 20.9769 3.47969 21.1315 3.56831L21.7849 3.94264C21.9396 4.03127 21.9929 4.22835 21.9036 4.38179ZM30.3185 9.20022C30.2585 9.30339 30.1492 9.36159 30.0372 9.36159C29.9825 9.36159 29.9265 9.34704 29.8758 9.31794L29.2224 8.94361C29.0678 8.85499 29.0144 8.6579 29.1038 8.50446C29.1931 8.35102 29.3918 8.29812 29.5465 8.38674L30.1998 8.76108C30.3545 8.8497 30.4078 9.04678 30.3185 9.20022ZM29.1024 4.38179C29.0131 4.22836 29.0664 4.03126 29.2211 3.94265L29.8745 3.56831C30.0292 3.47969 30.2279 3.5326 30.3172 3.68604C30.4065 3.83947 30.3532 4.03657 30.1985 4.12518L29.5451 4.49951C29.4945 4.52861 29.4385 4.54316 29.3838 4.54316C29.2718 4.54316 29.1625 4.48496 29.1024 4.38179ZM21.9034 8.50472C21.9927 8.65815 21.9394 8.85525 21.7847 8.94386L21.1314 9.3182C21.0807 9.34729 21.0247 9.36185 20.97 9.36185C20.858 9.36185 20.7487 9.30364 20.6887 9.20048C20.5993 9.04705 20.6527 8.84995 20.8073 8.76133L21.4607 8.387C21.6154 8.29838 21.8141 8.35128 21.9034 8.50472ZM25.8275 3.08559V6.44261C25.8275 6.55768 25.7662 6.6635 25.6649 6.7217L23.8021 7.78778C23.7515 7.81688 23.6955 7.83143 23.6408 7.83143C23.5288 7.83143 23.4194 7.77323 23.3594 7.67006C23.2701 7.51663 23.3234 7.31953 23.4781 7.23092L25.1782 6.25741V3.08558C25.1782 2.90834 25.3235 2.76416 25.5022 2.76416C25.6809 2.76416 25.8262 2.90834 25.8262 3.08558L25.8275 3.08559ZM22.6047 2.1068C22.5154 1.95337 22.5687 1.75627 22.7234 1.66766C22.8781 1.57904 23.0768 1.63194 23.1661 1.78538L23.5435 2.43351C23.6328 2.58695 23.5795 2.78404 23.4248 2.87266C23.3741 2.90176 23.3181 2.91631 23.2635 2.91631C23.1514 2.91631 23.0421 2.85811 22.9821 2.75494L22.6047 2.1068ZM28.4022 10.7796C28.4915 10.9331 28.4382 11.1302 28.2835 11.2188C28.2329 11.2479 28.1769 11.2624 28.1222 11.2624C28.0102 11.2624 27.9008 11.2042 27.8408 11.1011L27.4635 10.4529C27.3741 10.2995 27.4275 10.1024 27.5822 10.0138C27.7368 9.92517 27.9355 9.97807 28.0249 10.1315L28.4022 10.7796ZM27.4635 2.43356L27.8409 1.78543C27.9302 1.632 28.1289 1.57908 28.2836 1.66771C28.4382 1.75633 28.4916 1.95341 28.4022 2.10685L28.0249 2.75498C27.9649 2.85816 27.8555 2.91635 27.7435 2.91635C27.6888 2.91635 27.6328 2.9018 27.5822 2.8727C27.4275 2.78408 27.3742 2.587 27.4635 2.43356ZM23.5448 10.4546L23.1675 11.1027C23.1075 11.2059 22.9981 11.2641 22.8861 11.2641C22.8314 11.2641 22.7754 11.2495 22.7248 11.2204C22.5701 11.1318 22.5168 10.9347 22.6061 10.7813L22.9835 10.1331C23.0728 9.97972 23.2715 9.9268 23.4261 10.0154C23.5808 10.104 23.6342 10.3011 23.5448 10.4546ZM16.8206 20.4568L15.3245 22.2292C15.2659 22.298 15.1805 22.3403 15.0898 22.3443H15.0752C14.9898 22.3443 14.9072 22.3099 14.8458 22.2504L13.9858 21.3973C13.8591 21.2716 13.8591 21.0679 13.9858 20.9422C14.1125 20.8166 14.3178 20.8166 14.4445 20.9422L15.0539 21.5467L16.3233 20.0441C16.438 19.9079 16.6433 19.8907 16.7806 20.0044C16.918 20.1182 16.9366 20.3219 16.8206 20.4581L16.8206 20.4568Z" fill="black"/>
</svg>
