<svg width="80" height="80" viewBox="0 0 80 80" fill="none" xmlns="http://www.w3.org/2000/svg">
<g clip-path="url(#clip0_65_53)">
<path d="M20 72H60C63.1826 72 66.2348 70.7357 68.4853 68.4853C70.7357 66.2348 72 63.1826 72 60V33.68C72.0004 31.5392 71.4721 29.4314 70.4621 27.5438C69.452 25.6562 67.9914 24.0473 66.21 22.86L47.21 10.19C45.0748 8.76682 42.5661 8.00739 40 8.00739C37.4339 8.00739 34.9252 8.76682 32.79 10.19L13.79 22.86C12.0086 24.0473 10.548 25.6562 9.53793 27.5438C8.52785 29.4314 7.99957 31.5392 8 33.68V60C8 63.1826 9.26428 66.2348 11.5147 68.4853C13.7652 70.7357 16.8174 72 20 72ZM16 33.68C16.0004 32.8566 16.2042 32.046 16.5932 31.3203C16.9823 30.5946 17.5445 29.9762 18.23 29.52L37.23 16.85C38.0517 16.3018 39.0173 16.0093 40.005 16.0093C40.9927 16.0093 41.9583 16.3018 42.78 16.85L61.78 29.52C62.4637 29.9773 63.0239 30.5962 63.4112 31.3219C63.7984 32.0475 64.0007 32.8575 64 33.68V60C64 61.0609 63.5786 62.0783 62.8284 62.8284C62.0783 63.5786 61.0609 64 60 64H20C18.9391 64 17.9217 63.5786 17.1716 62.8284C16.4214 62.0783 16 61.0609 16 60V33.68Z" fill="#475569"/>
<path d="M37.46 54.15C38.1856 54.7119 39.0773 55.0169 39.995 55.0169C40.9127 55.0169 41.8044 54.7119 42.53 54.15C46.06 51.43 52 46.22 52 42C52.0024 40.6095 51.5217 39.2613 50.6401 38.1859C49.7586 37.1106 48.5309 36.3748 47.1669 36.1044C45.8029 35.8339 44.3874 36.0456 43.1622 36.7033C41.9371 37.361 40.9784 38.4238 40.45 39.71C40.4159 39.8019 40.3545 39.8811 40.2741 39.937C40.1936 39.993 40.098 40.023 40 40.023C39.902 40.023 39.8064 39.993 39.7259 39.937C39.6455 39.8811 39.5841 39.8019 39.55 39.71C39.0217 38.4238 38.063 37.361 36.8378 36.7033C35.6126 36.0456 34.1971 35.8339 32.8331 36.1044C31.4691 36.3748 30.2414 37.1106 29.3599 38.1859C28.4783 39.2613 27.9976 40.6095 28 42C28 46.22 33.94 51.43 37.46 54.15Z" fill="#475569"/>
</g>
<defs>
<clipPath id="clip0_65_53">
<rect width="80" height="80" fill="white"/>
</clipPath>
</defs>
</svg>
