<svg width="48" height="48" viewBox="0 0 48 48" fill="none" xmlns="http://www.w3.org/2000/svg">
<rect x="0.5" y="0.5" width="47" height="47" rx="23.5" stroke="#CBD5E1"/>
<path d="M15.7493 14.6719H21.7493C22.0353 14.6719 22.3098 14.7851 22.512 14.9873C22.7142 15.1895 22.8275 15.4641 22.8275 15.75C22.8275 16.0359 22.7142 16.3105 22.512 16.5127C22.3098 16.7149 22.0353 16.8281 21.7493 16.8281H16.8275V31.1719H21.7493C22.0353 31.1719 22.3098 31.2851 22.512 31.4873C22.7142 31.6895 22.8275 31.9641 22.8275 32.25C22.8275 32.5359 22.7142 32.8105 22.512 33.0127C22.3098 33.2149 22.0353 33.3281 21.7493 33.3281H15.7493C15.4634 33.3281 15.1888 33.2149 14.9866 33.0127C14.7844 32.8105 14.6712 32.5359 14.6712 32.25V15.75C14.6712 15.4641 14.7844 15.1895 14.9866 14.9873C15.1888 14.7851 15.4634 14.6719 15.7493 14.6719ZM28.4984 19.1709C28.7848 19.1709 29.0595 19.2848 29.262 19.4873L33.012 23.2373C33.1125 23.3375 33.1921 23.4568 33.2464 23.5879C33.3007 23.7189 33.3285 23.8592 33.3284 24.001C33.3283 24.1427 33.3008 24.2832 33.2464 24.4141C33.2055 24.5125 33.1499 24.6046 33.0823 24.6865L33.011 24.7646L29.261 28.5146C29.0585 28.7172 28.7838 28.8311 28.4974 28.8311C28.2109 28.831 27.9362 28.7172 27.7337 28.5146C27.5312 28.3121 27.4173 28.0374 27.4173 27.751C27.4173 27.4646 27.5312 27.1899 27.7337 26.9873L29.5638 25.1582L29.6439 25.0781H21.7493C21.4634 25.0781 21.1888 24.9649 20.9866 24.7627C20.7844 24.5605 20.6712 24.2859 20.6712 24C20.6712 23.7141 20.7844 23.4395 20.9866 23.2373C21.1888 23.0351 21.4634 22.9219 21.7493 22.9219H29.6439L29.5638 22.8418L27.7347 21.0146C27.5321 20.8121 27.4183 20.5374 27.4183 20.251C27.4183 19.9645 27.5322 19.6899 27.7347 19.4873C27.9372 19.2848 28.2119 19.1709 28.4984 19.1709Z" fill="#475569" stroke="#475569" stroke-width="0.09375"/>
</svg>
