<svg width="48" height="48" viewBox="0 0 48 48" fill="none" xmlns="http://www.w3.org/2000/svg">
<rect x="0.5" y="0.5" width="47" height="47" rx="23.5" stroke="#CBD5E1"/>
<path d="M20.9998 31.9219H26.9998C27.2856 31.9219 27.5603 32.0352 27.7625 32.2373C27.9646 32.4395 28.0779 32.7141 28.0779 33C28.0779 33.2859 27.9646 33.5605 27.7625 33.7627C27.5603 33.9648 27.2856 34.0781 26.9998 34.0781H20.9998C20.7141 34.0781 20.4401 33.9646 20.238 33.7627C20.0358 33.5605 19.9216 33.2859 19.9216 33C19.9216 32.7141 20.0358 32.4395 20.238 32.2373C20.4401 32.0354 20.7141 31.9219 20.9998 31.9219ZM23.9998 13.9219C26.0758 13.9219 28.0669 14.7469 29.5349 16.2148C31.003 17.6829 31.8279 19.6739 31.8279 21.75C31.8279 24.1517 32.2614 26.1696 33.0808 27.5791C33.242 27.8578 33.3265 28.1742 33.3269 28.4961C33.3272 28.8181 33.2425 29.135 33.0818 29.4141C32.9231 29.6932 32.6928 29.9253 32.4148 30.0859C32.137 30.2464 31.8215 30.33 31.5007 30.3281H16.4998C16.1782 30.3306 15.8613 30.2476 15.5828 30.0869C15.3043 29.9263 15.0737 29.6935 14.9148 29.4141C14.7549 29.1346 14.6715 28.818 14.6726 28.4961C14.6737 28.1741 14.7597 27.8575 14.9216 27.5791C15.7409 26.1696 16.1716 24.1525 16.1716 21.75C16.1716 19.6739 16.9966 17.6829 18.4646 16.2148C19.9326 14.7468 21.9237 13.9219 23.9998 13.9219ZM23.9998 16.0781C22.4956 16.0782 21.0526 16.6756 19.989 17.7393C18.9254 18.8029 18.3279 20.2458 18.3279 21.75C18.3279 24.2896 17.9084 26.4253 17.0828 28.1045L17.0496 28.1719H30.95L30.9167 28.1045C30.0911 26.4253 29.6716 24.2887 29.6716 21.75C29.6716 20.2457 29.0742 18.8029 28.0105 17.7393C26.9468 16.6757 25.504 16.0781 23.9998 16.0781Z" fill="#475569" stroke="#475569" stroke-width="0.09375"/>
</svg>
