<svg width="48" height="48" viewBox="0 0 48 48" fill="none" xmlns="http://www.w3.org/2000/svg">
<rect x="0.5" y="0.5" width="47" height="47" rx="23.5" stroke="#CBD5E1"/>
<path d="M24 19.1719C25.28 19.1734 26.507 19.6828 27.4121 20.5879C28.3172 21.493 28.8266 22.72 28.8281 24L28.8145 24.3564C28.7531 25.1858 28.4789 25.9878 28.0146 26.6826C27.4841 27.4766 26.7298 28.0955 25.8477 28.4609C24.9655 28.8263 23.9941 28.9216 23.0576 28.7354C22.1212 28.549 21.2611 28.0892 20.5859 27.4141C19.9108 26.7389 19.451 25.8788 19.2646 24.9424C19.0784 24.0059 19.1737 23.0345 19.5391 22.1523C19.9045 21.2702 20.5234 20.5159 21.3174 19.9854C22.0122 19.5211 22.8142 19.2469 23.6436 19.1855L24 19.1719ZM25.0225 21.5312C24.5343 21.3291 23.9968 21.2768 23.4785 21.3799C22.9603 21.483 22.4839 21.7368 22.1104 22.1104C21.7368 22.4839 21.483 22.9603 21.3799 23.4785C21.2768 23.9968 21.3291 24.5343 21.5312 25.0225C21.7335 25.5107 22.0762 25.9281 22.5156 26.2217C22.955 26.5152 23.4716 26.6719 24 26.6719C24.7086 26.6719 25.3886 26.3907 25.8896 25.8896C26.3907 25.3886 26.6719 24.7086 26.6719 24C26.6719 23.4716 26.5152 22.955 26.2217 22.5156C25.9281 22.0762 25.5107 21.7335 25.0225 21.5312ZM16.5303 28.2393L16.5059 28.2256L13.8984 26.7402C13.7639 26.6639 13.6473 26.5589 13.5566 26.4336C13.4659 26.3082 13.4024 26.1645 13.3721 26.0127C13.1085 24.6847 13.1084 23.3173 13.3721 21.9893C13.4021 21.8374 13.4651 21.6939 13.5557 21.5684C13.6464 21.4426 13.7636 21.3373 13.8984 21.2607L16.5 19.7793L16.5234 19.7656V19.7383L16.5361 16.7998C16.5369 16.6442 16.572 16.4906 16.6377 16.3496C16.7035 16.2085 16.7992 16.0831 16.918 15.9824C17.9629 15.0962 19.1665 14.4162 20.4648 13.9785C20.6076 13.9303 20.7591 13.9128 20.9092 13.9268C21.0592 13.9407 21.2045 13.986 21.3359 14.0596L23.9775 15.5352L24 15.5479L24.0225 15.5352L26.6641 14.0605C26.7953 13.9874 26.9402 13.9425 27.0898 13.9287C27.2396 13.9149 27.3907 13.9324 27.5332 13.9805C28.8313 14.4164 30.0357 15.094 31.0811 15.9785C31.2002 16.0793 31.2954 16.2053 31.3613 16.3467C31.4272 16.488 31.4623 16.6419 31.4629 16.7979L31.4727 19.7334V19.7607L31.4961 19.7744L34.1016 21.2598C34.2364 21.336 34.3535 21.441 34.4443 21.5664C34.5351 21.6918 34.5975 21.8355 34.6279 21.9873C34.8922 23.3152 34.8929 24.6826 34.6299 26.0107C34.5998 26.1625 34.5377 26.3061 34.4473 26.4316C34.3566 26.5574 34.2393 26.6627 34.1045 26.7393L31.4971 28.2207L31.4736 28.2344V28.2617L31.4609 31.2002C31.4602 31.3558 31.4251 31.5094 31.3594 31.6504C31.2936 31.7914 31.1987 31.917 31.0801 32.0176C30.0351 32.9039 28.8307 33.5838 27.5322 34.0215C27.3895 34.0696 27.2379 34.0872 27.0879 34.0732C26.9379 34.0593 26.7926 34.014 26.6611 33.9404L24.0225 32.4648L24 32.4521L23.9775 32.4648L21.3389 33.9395C21.2076 34.0126 21.0627 34.0575 20.9131 34.0713C20.7634 34.0851 20.6122 34.0675 20.4697 34.0195C19.1716 33.5836 17.9672 32.9059 16.9219 32.0215C16.8028 31.9207 16.7075 31.7947 16.6416 31.6533C16.5757 31.512 16.5406 31.3581 16.54 31.2021L16.5303 28.2666V28.2393ZM29.3076 17.3203L29.2891 17.3066C28.6774 16.8495 28.0083 16.4747 27.2988 16.1924L27.2783 16.1836L27.2588 16.1943L24.71 17.6191C24.5415 17.7124 24.3507 17.7585 24.1582 17.7539H23.834C23.6409 17.7591 23.4497 17.7127 23.2812 17.6182L20.7363 16.1934L20.7168 16.1826L20.6953 16.1914C19.9872 16.474 19.3198 16.8492 18.71 17.3066L18.6914 17.3203V17.3438L18.6807 20.1865C18.6799 20.337 18.6479 20.4857 18.5869 20.6221L18.5166 20.7539C18.4613 20.8429 18.4066 20.9317 18.3555 21.0264C18.2594 21.1982 18.1185 21.3412 17.9473 21.4385L15.4268 22.8711L15.4062 22.8818L15.4033 22.9053C15.3048 23.6324 15.3048 24.3696 15.4033 25.0967L15.4062 25.1191L15.4268 25.1309L17.9482 26.5723H17.9492C18.1199 26.6688 18.2607 26.8103 18.3564 26.9814C18.4074 27.073 18.4621 27.1646 18.5166 27.2529L18.5176 27.2539C18.624 27.424 18.6808 27.6206 18.6816 27.8213L18.6914 30.6562L18.6924 30.6797L18.7109 30.6934C19.3226 31.1505 19.9917 31.5253 20.7012 31.8076L20.7217 31.8164L20.7412 31.8057L23.29 30.3838C23.4585 30.2905 23.6493 30.2435 23.8418 30.248H24.1924C24.3767 30.2481 24.558 30.2957 24.7188 30.3857L27.2637 31.8096L27.2832 31.8213L27.3047 31.8125C28.013 31.5288 28.6803 31.1521 29.29 30.6934L29.3086 30.6797V30.6562L29.3223 27.8135C29.323 27.663 29.355 27.5143 29.416 27.3779L29.4863 27.2461L29.6475 26.9736C29.7432 26.8015 29.8843 26.6587 30.0557 26.5615L32.5762 25.1289L32.5957 25.1182L32.5996 25.0947C32.6975 24.3662 32.6965 23.6276 32.5967 22.8994L32.5938 22.877L32.5732 22.8652L30.0518 21.4277H30.0508C29.8801 21.3312 29.7393 21.1897 29.6436 21.0186C29.5926 20.927 29.5379 20.8354 29.4834 20.7471L29.4824 20.7461C29.376 20.576 29.3192 20.3794 29.3184 20.1787L29.3086 17.3438L29.3076 17.3203Z" fill="#475569" stroke="#475569" stroke-width="0.09375"/>
</svg>
